<?xml version="1.0" encoding="UTF-8" standalone="no"?>
<svg
   xmlns:dc="http://purl.org/dc/elements/1.1/"
   xmlns:cc="http://creativecommons.org/ns#"
   xmlns:rdf="http://www.w3.org/1999/02/22-rdf-syntax-ns#"
   xmlns:svg="http://www.w3.org/2000/svg"
   xmlns="http://www.w3.org/2000/svg"
   xmlns:xlink="http://www.w3.org/1999/xlink"
   xmlns:sodipodi="http://sodipodi.sourceforge.net/DTD/sodipodi-0.dtd"
   xmlns:inkscape="http://www.inkscape.org/namespaces/inkscape"
   width="16"
   height="2.8104496"
   viewBox="0 0 16 2.8104496"
   version="1.1"
   id="svg16"
   sodipodi:docname="icon_list_m_adj@1x.svg"
   inkscape:version="0.92.2 2405546, 2018-03-11">
  <metadata
     id="metadata20">
    <rdf:RDF>
      <cc:Work
         rdf:about="">
        <dc:format>image/svg+xml</dc:format>
        <dc:type
           rdf:resource="http://purl.org/dc/dcmitype/StillImage" />
        <dc:title>icon_list_m</dc:title>
      </cc:Work>
    </rdf:RDF>
  </metadata>
  <sodipodi:namedview
     pagecolor="#ffffff"
     bordercolor="#666666"
     borderopacity="1"
     objecttolerance="10"
     gridtolerance="10"
     guidetolerance="10"
     inkscape:pageopacity="0"
     inkscape:pageshadow="2"
     inkscape:window-width="1920"
     inkscape:window-height="1017"
     id="namedview18"
     showgrid="false"
     inkscape:zoom="47.6792"
     inkscape:cx="10.763789"
     inkscape:cy="0.57405171"
     inkscape:window-x="0"
     inkscape:window-y="0"
     inkscape:window-maximized="1"
     inkscape:current-layer="svg16" />
  <!-- Generator: Sketch 51 (57462) - http://www.bohemiancoding.com/sketch -->
  <title
     id="title2">icon_list_m</title>
  <desc
     id="desc4">Created with Sketch.</desc>
  <defs
     id="defs7">
    <path
       d="M 0,3.3263016 C 0,2.7779004 0.44463086,2.3333333 1.0008717,2.3333333 H 14.999128 C 15.551895,2.3333333 16,2.7736791 16,3.3263016 V 4.0070318 C 16,4.555433 15.555369,5 14.999128,5 H 1.0008717 C 0.44810551,5 0,4.5596542 0,4.0070318 Z M 0,8.6596349 C 0,8.1112337 0.44463086,7.6666667 1.0008717,7.6666667 H 14.999128 C 15.551895,7.6666667 16,8.1070124 16,8.6596349 v 0.6807302 c 0,0.5484012 -0.444631,0.9929679 -1.000872,0.9929679 H 1.0008717 C 0.44810551,10.333333 0,9.8929876 0,9.3403651 Z M 0,13.992968 C 0,13.444567 0.44463086,13 1.0008717,13 H 14.999128 C 15.551895,13 16,13.440346 16,13.992968 v 0.68073 c 0,0.548402 -0.444631,0.992969 -1.000872,0.992969 H 1.0008717 C 0.44810551,15.666667 0,15.226321 0,14.673698 Z"
       id="path-1"
       inkscape:connector-curvature="0" />
    <clipPath
       clipPathUnits="userSpaceOnUse"
       id="clipPath41">
      <rect
         id="rect43"
         width="20.99448"
         height="2.8104496"
         x="-2.7894764"
         y="5.5896239"
         style="stroke-width:1.79073238" />
    </clipPath>
  </defs>
  <g
     id="Final"
     clip-path="url(#clipPath41)"
     style="fill:none;fill-rule:evenodd;stroke:none;stroke-width:1"
     transform="translate(0,-5.5686504)">
    <g
       id="v1-1-1-mobile-home"
       transform="translate(-339,-70)">
      <g
         id="Direct-/-Icons-/-List-/-M"
         transform="translate(339,68)">
        <mask
           id="mask-2"
           fill="white">
          <use
             xlink:href="#path-1"
             id="use9"
             x="0"
             y="0"
             width="100%"
             height="100%" />
        </mask>
        <use
           id="icon_list_m"
           xlink:href="#path-1"
           style="fill:#333333"
           x="0"
           y="0"
           width="100%"
           height="100%" />
      </g>
    </g>
  </g>
</svg>
